<svg width="101" height="40" viewBox="0 0 101 40" fill="none" xmlns="http://www.w3.org/2000/svg">
<path d="M21.64 39L19.912 31.848H10.216L8.53598 39H0.375977L10.408 5.73599H19.96L29.992 39H21.64ZM11.56 26.136H18.568L15.064 11.448L11.56 26.136Z" fill="#1B1B1B"/>
<path d="M48.2725 37.8C47.3445 38.44 46.2565 38.936 45.0085 39.288C43.7925 39.64 42.5765 39.816 41.3605 39.816C35.7925 39.784 33.0085 36.712 33.0085 30.6V18.792H29.4085V13.512H33.0085V7.99199L40.5925 7.12799V13.512H46.4485L45.6325 18.792H40.5925V30.504C40.5925 31.688 40.7845 32.536 41.1685 33.048C41.5525 33.56 42.1605 33.816 42.9925 33.816C43.8565 33.816 44.7685 33.544 45.7285 33L48.2725 37.8Z" fill="#1B1B1B"/>
<path d="M58.3881 13.512V39H50.8041V13.512H58.3881ZM54.5481 0.071991C55.8601 0.071991 56.9321 0.487991 57.7641 1.31999C58.6281 2.11999 59.0601 3.14399 59.0601 4.39199C59.0601 5.63999 58.6281 6.67999 57.7641 7.51199C56.9321 8.31199 55.8601 8.71199 54.5481 8.71199C53.2361 8.71199 52.1641 8.31199 51.3321 7.51199C50.5001 6.67999 50.0841 5.63999 50.0841 4.39199C50.0841 3.14399 50.5001 2.11999 51.3321 1.31999C52.1641 0.487991 53.2361 0.071991 54.5481 0.071991Z" fill="#1B1B1B"/>
<path d="M71.119 39.816C68.911 39.816 67.183 39.192 65.935 37.944C64.719 36.664 64.111 34.856 64.111 32.52V3.38399L71.695 2.56799V32.232C71.695 33.288 72.127 33.816 72.991 33.816C73.439 33.816 73.855 33.736 74.239 33.576L75.727 38.952C74.351 39.528 72.815 39.816 71.119 39.816Z" fill="#1B1B1B"/>
<path d="M98.6226 31.608C98.6226 32.568 98.7506 33.272 99.0066 33.72C99.2946 34.168 99.7426 34.504 100.351 34.728L98.7666 39.672C97.1986 39.544 95.9186 39.208 94.9266 38.664C93.9346 38.088 93.1666 37.192 92.6226 35.976C90.9586 38.536 88.3986 39.816 84.9426 39.816C82.4146 39.816 80.3986 39.08 78.8946 37.608C77.3906 36.136 76.6386 34.216 76.6386 31.848C76.6386 29.064 77.6626 26.936 79.7106 25.464C81.7586 23.992 84.7186 23.256 88.5906 23.256H91.1826V22.152C91.1826 20.648 90.8626 19.624 90.2226 19.08C89.5826 18.504 88.4626 18.216 86.8626 18.216C86.0306 18.216 85.0226 18.344 83.8386 18.6C82.6546 18.824 81.4386 19.144 80.1906 19.56L78.4626 14.568C80.0626 13.96 81.6946 13.496 83.3586 13.176C85.0546 12.856 86.6226 12.696 88.0626 12.696C91.7106 12.696 94.3826 13.448 96.0786 14.952C97.7746 16.456 98.6226 18.712 98.6226 21.72V31.608ZM87.1506 34.392C88.8786 34.392 90.2226 33.576 91.1826 31.944V27.432H89.3106C87.5826 27.432 86.2866 27.736 85.4226 28.344C84.5906 28.952 84.1746 29.896 84.1746 31.176C84.1746 32.2 84.4306 33 84.9426 33.576C85.4866 34.12 86.2226 34.392 87.1506 34.392Z" fill="#1B1B1B"/>
</svg>
