<svg width="21" height="22" viewBox="0 0 21 22" fill="none" xmlns="http://www.w3.org/2000/svg">
<path d="M10.3533 21.2757C8.90615 21.2757 7.55307 21.0067 6.294 20.4687C5.03495 19.9307 3.93893 19.1939 3.00595 18.2582C2.07298 17.3225 1.33874 16.2223 0.803225 14.9577C0.267742 13.693 0 12.3386 0 10.8946C0 9.4506 0.26775 8.10222 0.80325 6.84947C1.33877 5.5967 2.07301 4.50718 3.00597 3.58091C3.93896 2.65463 5.03498 1.92611 6.29403 1.39536C7.55309 0.864617 8.90618 0.599243 10.3533 0.599243C11.8004 0.599243 13.1535 0.864617 14.4125 1.39536C15.6716 1.92611 16.7676 2.65463 17.7006 3.58091C18.6335 4.50718 19.3701 5.5967 19.9104 6.84947C20.4506 8.10222 20.7206 9.4506 20.7206 10.8946C20.7206 12.3386 20.4505 13.693 19.9103 14.9577C19.3701 16.2223 18.6335 17.3225 17.7006 18.2582C16.7676 19.1939 15.6715 19.9307 14.4125 20.4687C13.1534 21.0067 11.8004 21.2757 10.3533 21.2757ZM10.3391 19.3634C10.8942 18.7741 11.3652 18.0975 11.7522 17.3336C12.1391 16.5696 12.4623 15.6554 12.7217 14.5911H8.00978C8.23369 15.5889 8.53913 16.4823 8.92607 17.2712C9.31303 18.0601 9.78404 18.7575 10.3391 19.3634ZM8.2565 19.0641C7.83042 18.4509 7.47444 17.7784 7.18858 17.0467C6.90271 16.3149 6.65977 15.4964 6.45977 14.5911H2.7663C3.38078 15.7625 4.09998 16.6802 4.9239 17.3444C5.74782 18.0086 6.85868 18.5818 8.2565 19.0641ZM12.4467 19.0391C13.6279 18.666 14.6929 18.0993 15.6418 17.339C16.5907 16.5787 17.3522 15.6627 17.9261 14.5911H14.2717C14.0551 15.4797 13.8032 16.29 13.5163 17.0217C13.2293 17.7535 12.8728 18.426 12.4467 19.0391ZM2.28043 13.1366H6.18477C6.13477 12.6875 6.10561 12.2866 6.09727 11.9337C6.08894 11.5808 6.08477 11.2345 6.08477 10.8946C6.08477 10.4788 6.09311 10.1135 6.10978 9.79858C6.12644 9.48367 6.15977 9.12665 6.20977 8.7275H2.28043C2.16376 9.12665 2.08459 9.47952 2.04293 9.78611C2.00126 10.0927 1.98043 10.4622 1.98043 10.8946C1.98043 11.3176 2.00126 11.6972 2.04293 12.0335C2.08459 12.3697 2.16376 12.7374 2.28043 13.1366ZM7.73478 13.1366H12.9967C13.054 12.621 13.0886 12.2034 13.1005 11.8838C13.1125 11.5642 13.1185 11.2345 13.1185 10.8946C13.1185 10.562 13.1125 10.2465 13.1005 9.94826C13.0886 9.64999 13.054 9.24306 12.9967 8.7275H7.73478C7.66811 9.24306 7.62644 9.64999 7.60978 9.94826C7.59311 10.2465 7.58477 10.562 7.58477 10.8946C7.58477 11.2345 7.59311 11.5642 7.60978 11.8838C7.62644 12.2034 7.66811 12.621 7.73478 13.1366ZM14.4967 13.1366H18.412C18.5192 12.7374 18.596 12.3697 18.6424 12.0335C18.6888 11.6972 18.712 11.3176 18.712 10.8946C18.712 10.4622 18.6888 10.0927 18.6424 9.78611C18.596 9.47952 18.5192 9.12665 18.412 8.7275H14.5217C14.5529 9.319 14.5768 9.76154 14.5935 10.0551C14.6101 10.3487 14.6185 10.6285 14.6185 10.8946C14.6185 11.2511 14.606 11.5891 14.581 11.9087C14.556 12.2284 14.5279 12.6376 14.4967 13.1366ZM14.2467 7.25892H17.9261C17.3855 6.13017 16.6407 5.18563 15.6918 4.42531C14.7429 3.66498 13.6529 3.13152 12.4217 2.82493C12.8478 3.43088 13.2043 4.08908 13.4913 4.79951C13.7782 5.50994 14.0301 6.32974 14.2467 7.25892ZM8.00978 7.25892H12.7467C12.5728 6.39626 12.2692 5.55332 11.8359 4.73008C11.4025 3.90684 10.9036 3.18864 10.3391 2.57546C9.83404 3.01511 9.40053 3.59611 9.03858 4.31846C8.67663 5.04083 8.33369 6.02098 8.00978 7.25892ZM2.7663 7.25892H6.48478C6.66811 6.37963 6.89438 5.58893 7.16358 4.88682C7.43278 4.1847 7.78875 3.50572 8.2315 2.84988C6.99093 3.15647 5.91105 3.67926 4.99185 4.41825C4.07263 5.15725 3.33078 6.10414 2.7663 7.25892Z" fill="url(#paint0_linear_10_8)"/>
<defs>
<linearGradient id="paint0_linear_10_8" x1="20.1451" y1="-37.8819" x2="20.1451" y2="-17.2055" gradientUnits="userSpaceOnUse">
<stop stop-color="#31BDDC"/>
<stop offset="1" stop-color="#1A88C6"/>
</linearGradient>
</defs>
</svg>
